<svg xmlns="http://www.w3.org/2000/svg" width="56" height="50" viewBox="0 0 56 50">
    <defs>
        <linearGradient id="prefix__a" x1="99.784%" x2=".205%" y1="50%" y2="50%">
            <stop offset="0%" stop-color="#D2A433"/>
            <stop offset="100%" stop-color="#F1C560"/>
        </linearGradient>
        <linearGradient id="prefix__b" x1="63.349%" x2="38.835%" y1="69.277%" y2="56.971%">
            <stop offset="0%" stop-color="#38B2F3"/>
            <stop offset="99.918%" stop-color="#2B62FD"/>
        </linearGradient>
        <linearGradient id="prefix__c" x1="63.327%" x2="38.315%" y1="37.03%" y2="69.303%">
            <stop offset=".082%" stop-color="#2B62FD"/>
            <stop offset="100%" stop-color="#38B2F3"/>
        </linearGradient>
    </defs>
    <g fill="none" fill-rule="evenodd">
        <path fill="url(#prefix__a)" d="M18.905 12.929l-1.454-1.458c-1.06-1.057-1.59-2.457-1.59-3.856 0-1.4.53-2.796 1.59-3.856s2.456-1.59 3.856-1.59 2.799.53 3.86 1.59l1.661 1.662c.425.425 1.11.425 1.534 0l1.666-1.662c1.06-1.06 2.456-1.59 3.856-1.59s2.796.53 3.857 1.59c1.06 1.06 1.591 2.456 1.591 3.856s-.532 2.8-1.591 3.856L27.596 21.62l-2.537-2.536c-.425-.437-1.115-.446-1.546-.015-.425.424-.422 1.121.01 1.54l3.305 3.31c.425.42 1.11.42 1.534 0l10.913-10.913c1.481-1.482 2.224-3.438 2.224-5.39 0-1.953-.743-3.905-2.224-5.39C37.789.743 35.837 0 33.885 0c-1.953 0-3.91.743-5.391 2.225l-.898.898-.9-.898C25.217.743 23.26 0 21.307 0c-1.952 0-3.905.743-5.39 2.225-1.482 1.485-2.224 3.437-2.224 5.39 0 1.952.742 3.908 2.225 5.39l1.451 1.452c.424.434 1.118.443 1.546.012.428-.428.422-1.122-.009-1.54zm3.074 3.074c-.422-.425-1.11-.425-1.53 0-.426.421-.426 1.109 0 1.53.42.425 1.108.425 1.53 0 .425-.421.425-1.109 0-1.53z" transform="translate(.48 .14)"/>
        <path fill="url(#prefix__b)" fill-rule="nonzero" d="M49.3 2.845c.878.474 1.513 1.259 1.8 2.212 1.173 4.32 2.82 8.495 3.847 12.859.153.657.263 1.353.245 2.072-.022.766-.187 1.534-.587 2.267l-6.65 12.17 2.479 4.013c1.867 3.025 1.409 5.992-.19 8.159-.608.825-1.387 1.53-2.264 2.075-.88.54-1.861.922-2.87 1.097-2.652.458-5.512-.459-7.379-3.484l-6.023-9.748c-.748-1.213-1.063-2.524-1.048-3.825.012-1.388.425-2.867 1.094-4.08l5.189-9.5c.56-1.024 1.482-1.724 2.52-2.026 1.831-.538 3.769.205 4.768 1.81l2.111-3.864-2.362-7.896c-.262-.971-.183-1.915.297-2.808.975-1.809 3.214-2.478 5.023-1.503zm-3.12 2.527c-.198.37-.238.792-.116 1.192l2.478 8.299c.08.266.059.562-.085.825-2.304 4.214-4.605 8.425-6.906 12.639-.284.525-.941.718-1.467.434-.522-.287-.715-.941-.43-1.467l2.81-5.146c.272-.495.315-1.06.165-1.57-.323-1.1-1.454-1.721-2.557-1.397-.51.15-.96.489-1.232.984l-5.191 9.5c-.508.95-.82 2.01-.831 3.065-.01.914.21 1.83.73 2.674l6.02 9.744c1.326 2.152 3.33 2.806 5.18 2.488.739-.129 1.454-.407 2.095-.804.645-.397 1.213-.91 1.656-1.516 1.113-1.509 1.425-3.593.095-5.744l-2.792-4.523c-.208-.32-.239-.745-.043-1.106l6.948-12.72c.223-.404.312-.841.324-1.287.012-.48-.07-.994-.186-1.495L49.03 5.693c-.14-.422-.357-.727-.758-.944-.751-.407-1.683-.129-2.092.623z" transform="translate(.48 .14)"/>
        <path fill="url(#prefix__c)" fill-rule="nonzero" d="M10.914 4.348c.452.837.587 1.846.293 2.824l-2.359 7.88 2.112 3.863c.373-.596.895-1.107 1.555-1.467 1.021-.56 2.176-.648 3.212-.342 1.039.302 1.962 1.002 2.52 2.026l5.193 9.5c.666 1.213 1.078 2.695 1.093 4.08.013 1.301-.302 2.612-1.05 3.825l-6.02 9.748c-1.87 3.025-4.73 3.942-7.38 3.484-1.011-.175-1.99-.557-2.87-1.097-.88-.544-1.655-1.25-2.266-2.075-1.596-2.167-2.057-5.134-.187-8.16l2.475-4.011-6.65-12.171c-.4-.733-.564-1.5-.583-2.267-.018-.633.08-1.529.26-2.133l3.832-12.81c.293-.978.96-1.748 1.8-2.2 1.806-.975 4.045-.302 5.02 1.503zm-3.997.4c-.348.19-.626.508-.748.914l-3.823 12.78c-.116.5-.199 1.014-.186 1.493.012.447.103.883.324 1.287l6.948 12.721c.199.36.169.785-.042 1.106l-2.794 4.523c-1.329 2.151-1.017 4.235.095 5.744.447.606 1.015 1.119 1.657 1.516.641.397 1.356.675 2.099.804 1.846.317 3.85-.337 5.176-2.488l6.023-9.744c.52-.844.736-1.76.727-2.674-.012-1.054-.324-2.115-.831-3.065l-5.191-9.5c-.27-.495-.722-.835-1.232-.984-1.1-.324-2.234.3-2.558 1.396-.14.486-.11 1.024.132 1.504l2.845 5.213c.287.526.091 1.18-.431 1.467-.526.284-1.18.091-1.467-.434-2.3-4.214-4.602-8.425-6.903-12.639-.144-.262-.168-.559-.088-.825l2.484-8.312c.122-.406.067-.827-.122-1.18-.407-.754-1.339-1.029-2.094-.622z" transform="translate(.48 .14)"/>
    </g>
</svg>
